<svg version="1.0" xmlns="http://www.w3.org/2000/svg"
 width="1280.000000pt" height="1156.000000pt" viewBox="0 0 1280.000000 1156.000000"
 preserveAspectRatio="xMidYMid meet">
<g transform="translate(0.000000,1156.000000) scale(0.100000,-0.100000)"
   fill="rgb(255, 193, 7)" stroke="none">
<path d="M4283 11543 c-17 -11 -23 -25 -23 -50 0 -31 13 -49 106 -146 114
-119 164 -182 164 -204 0 -7 -9 -22 -20 -33 -20 -20 -20 -20 -82 4 -35 13
-110 33 -168 46 -57 12 -133 33 -169 46 -35 13 -74 24 -86 24 -31 0 -65 -45
-65 -86 0 -40 29 -63 110 -89 30 -10 80 -26 110 -37 51 -18 103 -33 203 -59
28 -7 37 -15 35 -27 -3 -16 -29 -17 -298 -17 l-294 0 -10 -26 c-12 -35 1 -96
22 -108 19 -10 202 -27 415 -37 142 -7 157 -13 119 -48 -11 -9 -60 -25 -109
-36 -50 -11 -102 -24 -115 -29 -20 -7 -97 -21 -205 -37 -42 -6 -63 -28 -63
-65 0 -45 16 -67 55 -75 57 -10 322 13 400 36 127 36 278 22 322 -32 18 -21
-6 -98 -46 -143 -16 -19 -33 -51 -37 -71 -9 -51 1 -186 18 -221 11 -24 20 -28
61 -31 l47 -3 0 43 c1 80 15 122 63 184 25 33 65 73 89 89 24 15 63 41 87 57
24 16 84 43 134 59 55 18 103 41 124 60 47 41 61 45 226 71 125 20 181 22 462
23 296 0 326 -2 405 -22 47 -12 168 -36 270 -54 175 -31 198 -33 441 -33 l255
-1 55 -45 c30 -25 103 -91 162 -147 110 -105 257 -226 362 -298 95 -65 118
-91 112 -124 -7 -34 -80 -150 -149 -238 -26 -33 -93 -100 -148 -148 -93 -81
-287 -289 -338 -361 -30 -44 -156 -189 -299 -345 -67 -74 -151 -179 -187 -234
-102 -157 -127 -192 -198 -277 -38 -44 -68 -84 -68 -89 0 -13 -66 -79 -79 -79
-21 0 -93 -75 -117 -121 -37 -73 -80 -116 -146 -146 -46 -20 -69 -39 -98 -78
-21 -29 -51 -57 -67 -64 -15 -7 -42 -31 -58 -54 -41 -56 -106 -104 -166 -122
-28 -8 -88 -39 -133 -69 -44 -29 -97 -60 -116 -68 -19 -8 -41 -22 -49 -32 -8
-9 -49 -35 -92 -57 -98 -51 -279 -219 -347 -323 -101 -154 -175 -336 -202
-496 -10 -64 -19 -103 -45 -210 -7 -30 -17 -80 -20 -110 -4 -30 -13 -62 -20
-70 -26 -29 -64 -85 -86 -125 -12 -22 -117 -134 -233 -250 -249 -247 -367
-400 -572 -743 -27 -45 -60 -100 -74 -121 -194 -296 -222 -332 -305 -399 -28
-22 -90 -76 -140 -121 -70 -64 -115 -94 -205 -140 -63 -32 -140 -68 -170 -80
-30 -12 -86 -41 -125 -65 -38 -24 -137 -79 -220 -122 -201 -104 -231 -122
-319 -194 -77 -63 -139 -132 -261 -285 -38 -48 -149 -167 -245 -264 -96 -97
-217 -224 -269 -281 -181 -202 -403 -421 -470 -465 -36 -24 -75 -53 -86 -65
-34 -38 -150 -107 -208 -124 -58 -17 -197 -22 -212 -7 -15 13 -74 31 -134 41
-43 8 -62 18 -102 55 -53 50 -64 52 -125 29 -32 -12 -45 -25 -63 -62 -43 -87
-51 -167 -61 -552 -10 -383 -33 -781 -49 -840 -15 -53 -42 -236 -48 -322 -6
-88 13 -201 59 -348 28 -88 34 -99 90 -152 68 -66 94 -72 171 -39 55 24 83 59
103 130 53 197 103 314 178 418 30 42 39 67 50 136 16 96 27 123 55 132 11 3
23 16 27 28 3 12 18 38 33 57 37 47 100 143 132 199 15 27 41 54 62 66 19 11
48 35 62 53 24 28 26 38 20 77 -6 43 -4 48 42 107 26 35 75 90 108 123 33 34
67 70 76 80 9 11 42 43 73 70 52 45 177 190 234 271 55 79 412 358 672 525
248 159 332 216 370 249 16 14 52 41 80 60 55 37 212 153 295 217 62 48 122
83 250 149 55 28 136 70 180 92 44 23 136 68 205 100 100 47 140 72 200 127
41 37 91 79 110 94 19 14 79 65 133 112 56 50 133 106 179 130 106 58 343 216
438 293 41 33 132 113 201 176 156 142 279 247 378 323 42 32 179 158 306 280
376 364 482 453 723 610 59 38 66 40 100 30 20 -6 75 -20 122 -33 181 -47 312
-82 483 -130 106 -30 225 -56 295 -64 812 -102 1075 -146 1089 -184 4 -8 -36
-56 -104 -125 -207 -211 -292 -328 -420 -581 -36 -72 -78 -149 -93 -171 -15
-22 -43 -67 -62 -100 -62 -105 -168 -277 -245 -395 -42 -63 -87 -133 -101
-155 -72 -113 -132 -191 -224 -289 -21 -21 -38 -43 -38 -48 0 -10 -54 -93
-103 -158 -19 -25 -41 -59 -50 -76 -9 -17 -35 -51 -59 -75 -40 -41 -46 -44
-97 -44 l-54 0 -51 -91 c-28 -50 -64 -107 -79 -127 -28 -36 -86 -159 -87 -187
-2 -30 -87 -135 -131 -160 -54 -32 -61 -66 -26 -123 29 -47 121 -124 167 -138
19 -6 58 -24 87 -40 48 -26 230 -94 333 -123 45 -13 157 -53 300 -107 41 -15
149 -62 240 -104 320 -148 386 -164 650 -165 230 0 394 37 457 102 45 47 54
76 43 145 -6 32 -10 59 -10 60 0 11 -70 77 -89 85 -14 6 -96 23 -181 38 l-155
28 -50 54 c-40 43 -61 58 -107 72 -51 15 -64 25 -117 89 -34 40 -81 91 -105
115 -25 24 -55 57 -67 75 -13 18 -38 49 -56 70 -39 44 -41 59 -11 79 l23 15
-24 64 c-40 111 -42 97 40 289 11 25 24 52 30 60 5 8 24 44 41 80 73 151 326
438 573 650 140 121 586 561 713 704 53 60 172 188 263 283 91 95 183 198 205
228 21 31 64 91 95 133 98 134 112 170 117 300 4 88 1 122 -12 155 -31 82
-128 158 -331 260 -175 87 -179 90 -620 362 -60 37 -146 86 -190 108 -44 22
-87 46 -95 52 -8 7 -107 56 -219 109 -112 53 -227 113 -255 134 -28 21 -67 48
-87 60 -64 39 -241 112 -344 142 -122 35 -172 53 -186 67 -13 13 15 42 76 81
22 13 60 41 85 61 128 104 381 272 512 339 138 72 172 95 273 187 136 122 264
196 525 300 159 64 248 107 300 147 14 10 86 66 160 124 133 105 135 106 178
100 74 -10 129 -42 217 -126 81 -78 85 -80 122 -74 34 5 52 -1 149 -55 140
-78 383 -181 527 -225 268 -82 346 -106 412 -132 124 -47 338 -105 396 -107
47 -1 61 3 97 29 23 17 59 56 79 86 21 30 62 86 91 124 87 114 142 193 164
235 11 21 24 41 28 44 4 3 30 42 56 88 27 45 58 97 71 115 35 52 130 242 159
318 57 150 76 203 114 314 38 113 84 263 100 328 11 43 114 213 168 276 49 58
102 164 142 286 33 101 39 128 45 203 3 32 12 71 21 88 26 52 104 282 104 310
0 51 -69 79 -103 42 -8 -10 -23 -45 -32 -78 -10 -33 -31 -84 -46 -114 -16 -30
-29 -59 -29 -66 0 -7 -6 -18 -14 -24 -10 -9 -17 -7 -27 5 -11 13 -10 30 8 102
12 48 25 114 28 147 3 33 10 94 15 135 10 90 -1 120 -47 133 -29 9 -31 12 -30
55 2 41 -1 48 -26 60 -63 30 -94 -4 -137 -148 -12 -41 -32 -93 -43 -115 -21
-39 -22 -39 -25 -14 -2 15 4 54 12 87 9 33 16 78 16 101 0 34 -4 43 -23 50
-30 12 -72 3 -90 -18 -20 -22 -66 -198 -78 -296 -15 -136 -102 -325 -148 -325
-24 0 -96 53 -117 85 -30 46 -89 68 -189 73 -67 3 -95 0 -109 -10 -29 -22 -13
-53 39 -72 24 -10 75 -46 115 -83 61 -56 77 -80 119 -167 26 -55 50 -117 54
-137 3 -20 18 -67 33 -105 36 -89 35 -128 -9 -255 -46 -132 -66 -177 -140
-314 -143 -263 -168 -299 -328 -476 -63 -70 -142 -158 -176 -197 -74 -83 -153
-129 -205 -118 -40 8 -145 76 -219 141 -59 52 -206 138 -298 175 -30 11 -62
32 -73 45 -11 14 -40 31 -66 38 -27 8 -48 21 -50 30 -5 25 31 53 76 60 27 5
48 16 65 36 13 16 38 36 56 45 17 10 40 31 51 49 32 54 34 55 107 50 55 -4 71
-2 82 11 18 22 49 170 57 276 4 47 11 91 17 98 6 8 28 21 49 29 28 11 40 23
43 42 6 32 57 188 66 203 5 8 37 7 111 -1 178 -22 186 -19 221 59 31 71 27
257 -8 367 -22 72 -33 90 -88 146 -34 36 -88 79 -119 96 -41 24 -59 41 -68 64
-21 60 -58 107 -86 107 -30 0 -62 15 -87 41 -12 13 -32 19 -59 19 -51 0 -142
50 -163 89 -36 70 -243 110 -508 97 -77 -3 -148 -11 -158 -17 -11 -5 -54 -19
-97 -30 -134 -34 -271 -114 -336 -196 -18 -23 -47 -54 -65 -69 -45 -38 -91
-121 -91 -166 0 -55 -15 -84 -48 -96 -25 -9 -35 -7 -65 14 -19 13 -45 39 -57
58 -36 59 -163 168 -242 208 -115 58 -226 108 -239 108 -18 0 -139 60 -174 86
-58 44 -310 165 -394 190 -47 14 -156 60 -241 102 -85 43 -191 92 -235 111
-139 60 -238 111 -302 156 -42 29 -76 45 -105 49 -145 18 -448 37 -663 42
-257 7 -320 3 -610 -36 -82 -11 -195 -25 -250 -31 -55 -5 -161 -19 -235 -30
-182 -28 -253 -23 -346 24 -70 36 -101 45 -373 112 -80 19 -155 42 -168 50
-13 9 -85 71 -161 138 -186 166 -195 171 -239 140z"/>
</g>
</svg>
