<svg version="1.0" xmlns="http://www.w3.org/2000/svg"
 width="201.000000pt" height="251.000000pt" viewBox="0 0 201.000000 251.000000"
 preserveAspectRatio="xMidYMid meet">

<g transform="translate(0.000000,251.000000) scale(0.100000,-0.100000)"
   fill="rgb(255, 193, 7)" stroke="none">
<path d="M265 2270 l-39 -40 53 -54 52 -53 -51 -68 c-293 -387 -252 -944 95
-1290 152 -153 372 -262 570 -283 l70 -7 3 -87 3 -88 -156 0 -155 0 0 -60 0
-60 368 2 367 3 0 55 0 55 -158 3 -158 3 3 87 3 87 65 7 c168 18 345 91 484
200 l50 39 53 -53 53 -53 42 43 43 42 -133 133 c-72 73 -132 136 -132 140 0 4
15 28 34 54 94 133 136 268 136 438 0 184 -54 339 -168 481 -97 120 -266 225
-419 258 -206 46 -457 -6 -614 -126 l-46 -36 -134 134 c-74 74 -136 134 -139
134 -3 0 -24 -18 -45 -40z m830 -200 c10 -23 22 -43 27 -46 4 -3 28 11 53 31
38 32 49 36 77 30 l32 -8 -27 -21 c-21 -17 -31 -40 -48 -114 -21 -87 -21 -93
-5 -111 17 -18 16 -22 -1 -70 l-18 -51 61 -60 60 -61 68 31 c38 17 70 29 71
28 1 -2 17 -40 36 -85 28 -68 42 -88 76 -113 l42 -31 38 24 c21 13 49 30 62
37 l24 12 -6 -75 c-22 -261 -189 -476 -439 -564 -103 -37 -278 -39 -388 -5
-264 82 -441 310 -457 591 l-6 94 99 -53 98 -54 120 -5 119 -6 16 -48 c13 -38
25 -53 55 -70 38 -21 41 -28 83 -152 45 -137 53 -150 93 -160 l25 -6 -3 103
c-3 99 -2 106 31 178 33 75 33 75 19 133 -11 44 -19 58 -36 62 -11 2 -67 11
-123 20 -93 15 -104 15 -132 0 -27 -14 -40 -14 -91 -4 -33 6 -60 14 -60 17 0
3 13 20 29 37 20 19 44 69 70 143 23 63 41 120 41 127 0 7 -28 31 -63 54 -56
36 -70 41 -123 41 -90 0 -94 9 -33 64 98 88 248 148 385 155 27 1 33 -4 49
-39z m-632 -159 c-120 -156 -172 -406 -128 -616 18 -87 89 -232 149 -307 219
-274 613 -360 927 -202 41 20 90 49 110 65 20 16 41 29 46 29 5 0 26 -18 47
-39 l38 -39 -63 -47 c-235 -173 -557 -213 -839 -104 -192 74 -362 232 -460
426 -67 134 -84 213 -84 388 1 134 4 160 27 238 32 105 80 202 138 280 l43 58
42 -42 42 -41 -35 -47z"/>
</g>
</svg>
