<svg version="1.0" xmlns="http://www.w3.org/2000/svg"
 width="980.000000pt" height="980.000000pt" viewBox="0 0 980.000000 980.000000"
 preserveAspectRatio="xMidYMid meet">

<g transform="translate(0.000000,980.000000) scale(0.100000,-0.100000)"
   fill="rgb(255, 193, 7)"
 stroke="none">
<path d="M1992 7810 c-177 -52 -319 -206 -357 -387 -22 -101 -22 -1048 0
-1099 26 -63 32 -64 520 -64 l435 0 0 -1892 c0 -1557 3 -1902 14 -1944 44
-165 163 -312 315 -388 140 -71 2 -66 1983 -66 1757 0 1786 0 1864 20 383 98
672 451 724 885 13 111 6 281 -14 330 -26 62 -4 60 -530 65 l-481 5 -3 563
c-1 309 -3 562 -5 562 -1 0 -47 -20 -102 -45 l-100 -45 -3 -520 -2 -520 -1168
0 c-1063 0 -1170 -1 -1191 -16 -41 -29 -51 -71 -41 -168 36 -352 -139 -690
-437 -839 -110 -56 -191 -73 -276 -59 -38 7 -93 24 -123 39 -68 33 -147 116
-182 190 l-27 58 -5 2480 c-5 2346 -6 2482 -23 2524 -10 25 -29 65 -42 89 -14
25 -25 46 -25 48 0 2 719 4 1598 4 1298 0 1606 -3 1647 -14 100 -26 175 -78
228 -159 65 -98 67 -115 67 -564 0 -262 3 -403 10 -403 6 0 10 4 10 9 0 5 43
68 95 140 l95 132 0 283 c0 317 -5 350 -68 470 -47 90 -155 200 -239 244 -34
18 -96 41 -139 52 -76 20 -117 20 -2018 19 -1862 0 -1944 -1 -2004 -19z m413
-218 c65 -30 128 -92 157 -156 23 -51 23 -55 26 -503 l3 -453 -376 0 -375 0 0
453 0 452 26 55 c28 61 62 101 112 132 64 39 110 48 247 45 110 -2 138 -6 180
-25z m4879 -4549 c17 -43 -16 -251 -57 -358 -77 -203 -205 -348 -388 -440
-136 -69 -31 -65 -1660 -65 l-1472 0 59 63 c191 199 304 480 304 753 l0 64
1604 0 c1510 0 1604 -1 1610 -17z"/>
<path d="M7895 7616 c-470 -98 -923 -390 -1291 -831 -91 -110 -263 -352 -270
-382 -6 -22 11 -158 23 -189 4 -10 -5 -9 -34 2 -35 14 -43 14 -76 1 -43 -18
-71 -60 -143 -213 -124 -262 -209 -557 -249 -859 -25 -191 -19 -569 11 -690 4
-14 -40 -99 -135 -267 -120 -209 -141 -252 -141 -287 0 -87 101 -134 165 -78
14 12 90 134 168 271 l142 248 120 47 c252 99 555 274 760 441 103 82 343 323
423 422 251 314 511 820 627 1218 51 177 80 330 115 610 17 135 40 296 50 357
22 125 18 147 -26 182 -35 28 -95 27 -239 -3z m29 -331 c-59 -469 -93 -643
-167 -860 -124 -360 -325 -739 -546 -1025 -151 -196 -431 -444 -663 -589 -118
-74 -288 -164 -295 -157 -9 9 444 769 654 1096 231 362 431 652 617 898 72 96
137 183 143 195 22 38 16 84 -16 119 -25 28 -36 33 -74 33 -57 0 -72 -13 -185
-165 -407 -547 -697 -993 -1266 -1955 l-77 -130 4 175 c8 289 72 586 187 860
17 41 38 92 47 113 8 20 19 37 23 37 5 0 43 -38 85 -85 80 -88 112 -105 170
-91 62 16 84 69 66 160 -60 310 -81 422 -81 432 0 17 155 228 245 334 153 180
384 383 558 489 88 53 235 127 317 159 96 37 254 81 261 74 4 -4 1 -56 -7
-117z"/>
<path d="M3157 6864 c-55 -30 -65 -118 -18 -165 l29 -29 1302 0 c873 0 1308 3
1321 10 25 14 49 62 49 101 0 22 -10 41 -34 65 l-34 34 -1293 0 c-1137 -1
-1297 -3 -1322 -16z"/>
<path d="M3158 6143 c-56 -35 -66 -117 -19 -164 l29 -29 1097 0 1097 0 29 29
c41 41 41 98 0 143 l-29 33 -1089 2 c-1000 2 -1090 1 -1115 -14z"/>
<path d="M3144 5406 c-46 -46 -48 -103 -5 -147 l29 -29 609 0 c666 0 637 -3
663 59 17 41 6 92 -26 122 l-26 24 -605 3 -605 2 -34 -34z"/>
<path d="M3174 4706 c-41 -18 -64 -52 -64 -96 0 -45 23 -78 66 -96 49 -21
1459 -21 1508 0 43 18 66 51 66 96 0 45 -23 78 -66 96 -49 20 -1463 20 -1510
0z"/>
<path d="M3174 3986 c-67 -30 -85 -109 -38 -165 l26 -31 1095 0 1095 0 29 29
c41 41 41 98 0 143 l-29 33 -1074 2 c-889 2 -1078 0 -1104 -11z"/>
</g>
</svg>
